<svg xmlns="http://www.w3.org/2000/svg" viewBox="0 0 500 400" fill="white" opacity="1">
  <path d="M180 60 L220 45 L260 55 L290 40 L320 50 L350 42 L380 58 L400 48 L420 65 L435 55 L450 70 L460 90 L470 110 L465 135 L475 155 L468 175 L480 195 L472 220 L460 240 L470 260 L455 275 L440 265 L425 280 L405 270 L390 285 L370 275 L350 290 L330 280 L310 295 L290 285 L270 300 L250 290 L230 305 L210 295 L190 310 L170 298 L150 312 L130 300 L110 290 L95 275 L80 260 L70 240 L60 220 L55 195 L50 170 L58 145 L52 120 L60 100 L75 85 L90 75 L110 68 L130 72 L150 62 L165 68 Z" />
</svg>